<?xml version="1.0" standalone="no"?>
<!DOCTYPE svg PUBLIC "-//W3C//DTD SVG 20010904//EN"
 "http://www.w3.org/TR/2001/REC-SVG-20010904/DTD/svg10.dtd">
<svg version="1.0" xmlns="http://www.w3.org/2000/svg"
 width="512.000000pt" height="512.000000pt" viewBox="0 0 512.000000 512.000000"
 preserveAspectRatio="xMidYMid meet">

<g transform="translate(0.000000,512.000000) scale(0.100000,-0.100000)"
fill="#FCC419" stroke="none">
<path d="M1470 5111 c-69 -21 -132 -74 -166 -141 -10 -21 -19 -66 -22 -111
l-4 -76 -52 -12 c-102 -24 -176 -102 -196 -210 -13 -72 -13 -280 1 -320 14
-41 40 -54 114 -61 l60 -5 42 -355 c23 -195 42 -367 42 -381 l1 -27 -172 -5
c-187 -5 -251 -18 -385 -74 -256 -108 -465 -357 -533 -634 -23 -91 -37 -284
-26 -343 8 -44 59 -104 103 -122 18 -8 60 -14 93 -14 l60 0 0 -133 0 -133 -54
-23 c-68 -28 -137 -95 -173 -169 -23 -48 -28 -70 -28 -137 0 -71 4 -88 33
-147 38 -77 92 -129 170 -164 l53 -24 -3 -133 -3 -132 -75 -5 c-90 -7 -132
-31 -161 -94 -16 -35 -19 -67 -19 -211 0 -111 5 -194 15 -240 18 -87 72 -197
126 -258 l41 -47 -147 0 -147 0 -29 -29 c-17 -18 -29 -40 -29 -56 0 -16 12
-38 29 -56 l29 -29 2502 0 2502 0 29 29 c38 38 38 74 0 112 l-29 29 -211 0
c-202 0 -211 1 -211 19 0 11 70 476 156 1033 94 616 153 1026 149 1045 -7 41
-50 92 -92 109 -18 8 -62 14 -98 14 l-65 0 0 159 c0 147 -2 160 -22 191 -48
70 -63 75 -238 79 l-158 3 -4 100 c-4 95 -5 102 -31 124 -27 23 -33 24 -213
24 -177 0 -184 1 -184 20 0 47 -32 101 -76 126 -42 25 -44 28 -39 62 5 30 105
890 105 897 0 2 30 5 66 7 58 4 70 8 90 32 23 26 24 33 24 194 0 154 -2 171
-24 217 -30 66 -91 120 -157 139 -29 9 -59 16 -66 16 -10 0 -13 19 -13 73 0
87 -31 160 -88 207 -76 63 -25 60 -1146 59 -562 0 -1032 -4 -1046 -8z m2063
-173 c37 -19 46 -40 47 -100 l0 -58 -1065 0 -1065 0 0 48 c0 56 17 92 50 109
35 18 2000 19 2033 1z m279 -356 c20 -20 23 -34 26 -127 l4 -105 -1324 2
-1323 3 -3 72 c-4 102 11 151 51 168 27 12 233 14 1289 12 l1257 -2 23 -23z
m-388 -869 c-29 -258 -53 -469 -53 -470 -1 -1 -14 -4 -30 -8 -16 -3 -39 -17
-52 -31 l-23 -24 -25 23 c-59 54 -172 119 -273 157 -147 54 -135 53 -840 57
l-656 4 -6 37 c-4 20 -22 174 -41 342 -19 168 -38 322 -41 343 l-6 37 1049 0
1049 0 -52 -467z m-678 -484 c96 -13 222 -58 300 -107 l59 -37 -45 -2 c-125
-7 -151 -14 -191 -50 -48 -44 -59 -81 -59 -205 l0 -98 -157 0 c-140 0 -162 -2
-191 -20 -60 -37 -72 -70 -72 -202 l0 -118 -1026 0 -1026 0 7 98 c3 53 13 125
21 159 51 230 212 424 436 527 140 65 126 64 1040 65 539 1 853 -3 904 -10z
m924 -864 l0 -704 -35 -7 c-20 -3 -75 -2 -123 2 l-87 9 -3 703 -2 702 125 0
125 0 0 -705z m-430 -55 c0 -324 -3 -590 -6 -590 -17 0 -130 68 -181 109 l-58
47 -3 512 -2 512 125 0 125 0 0 -590z m850 46 l0 -545 -33 -25 c-36 -28 -147
-81 -189 -92 l-28 -6 0 606 0 606 125 0 125 0 0 -544z m430 134 l0 -149 -44
-31 c-61 -41 -105 -99 -159 -205 l-46 -90 0 313 -1 312 125 0 125 0 0 -150z
m-1711 -117 c0 -179 -1 -187 -17 -163 -41 62 -176 160 -221 160 -7 0 -11 35
-11 95 l0 95 125 0 125 0 -1 -187z m-589 -160 c0 -11 29 -192 36 -225 l6 -28
-151 0 c-82 0 -162 -5 -178 -10 -15 -6 -130 -113 -255 -238 l-228 -227 -227
227 c-126 125 -241 232 -256 238 -16 5 -104 10 -198 10 l-169 0 0 130 0 130
810 0 c446 0 810 -3 810 -7z m145 -965 c3 -18 23 -150 45 -293 l40 -259 -30
-30 -30 -30 -187 186 c-152 151 -196 188 -228 197 -27 7 -257 11 -707 11
l-668 0 0 125 0 125 880 0 879 0 6 -32z m1246 -151 c222 -53 302 -328 142
-492 -82 -85 -223 -113 -328 -66 -257 114 -230 479 40 557 54 16 80 16 146 1z
m-1486 -448 c110 -111 214 -207 232 -215 34 -15 53 -11 96 19 16 10 29 18 31
16 1 -2 11 -58 20 -124 10 -66 20 -132 23 -147 l5 -28 -873 0 c-481 1 -904 5
-941 9 -192 25 -344 177 -369 369 -4 37 -8 120 -9 185 l0 117 793 0 792 0 200
-201z"/>
<path d="M1080 2983 c-78 -29 -74 -137 6 -163 58 -20 144 -7 172 25 33 39 30
87 -9 119 -26 22 -40 26 -92 25 -34 0 -69 -3 -77 -6z"/>
<path d="M2095 2978 c-52 -30 -62 -99 -19 -139 22 -21 35 -24 99 -24 78 0 108
15 126 62 12 32 -8 81 -42 98 -33 18 -135 19 -164 3z"/>
<path d="M1579 2805 c-64 -35 -54 -132 16 -155 56 -18 140 -8 170 20 43 40 32
110 -22 138 -30 16 -132 14 -164 -3z"/>
</g>
</svg>
